<svg enable-background="new 0 0 1000 1000" height="512" viewBox="0 0 1000 1000" width="512" xmlns="http://www.w3.org/2000/svg"><g id="Grid" display="none"><g display="inline" fill="none" stroke="#000" stroke-miterlimit="10" stroke-width=".1"><path d="m-.5 0h998.23v998.23h-998.23z"/><circle cx="498.62" cy="499.12" r="499.12"/><path d="m249.06 0h499.12v998.23h-499.12z"/><path d="m498.62 998.23v-998.23"/><path d="m-.5 0 1000.73 1000.73"/><path d="m997.73 0-998.23 998.23"/><path d="m-.5 249.56h998.23v499.12h-998.23z"/><path d="m997.73 499.12h-998.23"/><path d="m144.24 144.74h708.75v708.75h-708.75z"/><circle cx="498.62" cy="499.12" r="354.37"/><circle cx="498.62" cy="499.12" r="249.56"/><circle cx="498.62" cy="499.12" r="124.78"/></g></g><g id="Icons"><g id="Menu"><g><g><path d="m853 544h-708c-24.81 0-45-20.19-45-45s20.19-45 45-45h708c24.81 0 45 20.19 45 45s-20.19 45-45 45zm-708-80c-19.3 0-35 15.7-35 35s15.7 35 35 35h708c19.3 0 35-15.7 35-35s-15.7-35-35-35z" fill="#231f20"/></g></g><g><g><path d="m853 794h-708c-24.81 0-45-20.19-45-45s20.19-45 45-45h708c24.81 0 45 20.19 45 45s-20.19 45-45 45zm-708-80c-19.3 0-35 15.7-35 35s15.7 35 35 35h708c19.3 0 35-15.7 35-35s-15.7-35-35-35z" fill="#231f20"/></g></g><g><g><path d="m853 295h-708c-24.81 0-45-20.19-45-45s20.19-45 45-45h708c24.81 0 45 20.19 45 45s-20.19 45-45 45zm-708-80c-19.3 0-35 15.7-35 35s15.7 35 35 35h708c19.3 0 35-15.7 35-35s-15.7-35-35-35z" fill="#231f20"/></g></g></g></g></svg>