<svg xmlns="http://www.w3.org/2000/svg" version="1.1" xmlns:xlink="http://www.w3.org/1999/xlink" width="512" height="512" x="0" y="0" viewBox="0 0 512 512" style="enable-background:new 0 0 512 512" xml:space="preserve" class=""><g transform="matrix(0.8700000000000008,0,0,0.8700000000000008,33.2799999999998,28.28011058807334)"><g fill-rule="evenodd" clip-rule="evenodd"><path fill="#6d91ac" d="m381.885 60.504 65.172 46.397c4.481 3.19 10.756 2.134 13.946-2.347l11.599-16.293c3.19-4.48 2.134-10.756-2.347-13.946l-65.172-46.397c-4.481-3.19-10.756-2.134-13.946 2.347l-11.599 16.294c-3.189 4.48-2.133 10.755 2.347 13.945z" opacity="1" data-original="#6d91ac"></path><path fill="#a7bdcd" d="m447.058 106.901-65.172-46.397-25.431 35.722c24.503 11.394 46.552 27.255 65.082 46.522z" opacity="1" data-original="#a7bdcd" class=""></path><path fill="#6d91ac" d="M421.537 142.748c-18.531-19.267-40.579-35.128-65.082-46.522a214.19 214.19 0 0 0-38.816-13.694c-7.275 19.547-6.619 37.65 17.067 47.79 52.376 22.423 91.934 69.604 103.694 126.566 5.611 27.177 26.52 23.893 43.229 22.65-3.107-52.863-25.453-100.775-60.092-136.79z" opacity="1" data-original="#6d91ac"></path><path fill="#faf7f5" d="M438.4 256.889c-11.76-56.962-51.318-104.144-103.694-126.566-23.686-10.14-24.342-28.243-17.067-47.79a214.534 214.534 0 0 0-51.637-6.279c-40.418 0-73.486 97.2-73.486 216v40.001h289.487v-40.001c0-4.267-.125-8.506-.373-12.714-16.71 1.242-37.619 4.526-43.23-22.651z" opacity="1" data-original="#faf7f5" class=""></path><path fill="#faf7f5" d="M192.515 292.253c0-118.8 33.069-216 73.486-216-118.8 0-216 97.2-216 216v40.001h142.514z" opacity="1" data-original="#faf7f5" class=""></path><path fill="#a7bdcd" d="M50.002 292.253c0-118.8 97.2-216 216-216v-40c-140.878 0-256 115.122-256 256zM482.002 332.254H10l.001 40.002H502v-40.002z" opacity="1" data-original="#a7bdcd" class=""></path><path fill="#faf7f5" d="M502 372.256H10v113.673h312.27v-46.171c0-15.125 12.375-27.5 27.5-27.5s27.5 12.375 27.5 27.5v46.171H502z" opacity="1" data-original="#faf7f5" class=""></path><path fill="#6d91ac" d="M349.771 412.257c-15.125 0-27.5 12.375-27.5 27.5v46.171h55v-46.171c0-15.125-12.376-27.5-27.5-27.5z" opacity="1" data-original="#6d91ac"></path></g><path d="M502 322.254h-9.998v-30.001c0-4.405-.142-8.788-.393-13.151-.005-.102 0-.202-.007-.305-.005-.061-.017-.119-.022-.179-3.035-50.812-22.99-98.538-57.179-136.696l16.565-23.268c.608.056 1.219.094 1.834.094 1.119 0 2.248-.094 3.375-.284 5.276-.888 9.884-3.769 12.976-8.111l11.6-16.293c6.395-8.983 4.29-21.495-4.693-27.892l-65.172-46.396h-.001c-8.981-6.394-21.494-4.29-27.892 4.694l-11.598 16.292c-3.093 4.343-4.308 9.64-3.42 14.917a20.077 20.077 0 0 0 1.535 4.973l-16.427 23.076c-24.251-10.193-50.259-16.068-77.079-17.24l-.001-30.23c0-5.522-4.478-10-10-10-70.806 0-137.537 27.736-187.899 78.1-50.363 50.363-78.1 117.094-78.1 187.9 0 5.523 4.478 10 10 10h30v20.001H10c-5.522 0-10 4.477-10 10v153.674c0 5.523 4.478 10 10 10h492c5.522 0 10-4.477 10-10V332.254c0-5.523-4.478-10-10-10zm-299.484 0v-30.001c0-56.391 7.477-109.423 21.054-149.329 12.072-35.485 27.935-56.671 42.432-56.671 13.337 0 26.376 1.289 39.014 3.722-6.322 28.747 9.934 42.767 25.755 49.54 50.271 21.522 86.845 66.156 97.836 119.396 3.083 14.931 10.67 24.667 22.552 28.938 5.39 1.938 10.99 2.508 16.462 2.508 1.466 0 2.916-.05 4.356-.117.007.671.026 1.34.026 2.013v30.001zm268.309-52.006c-13.865.549-19.859-1.95-22.63-15.381-12.314-59.646-53.269-109.642-109.553-133.737-10.902-4.668-17.497-11.227-14.229-26.428 78.437 23.232 137.498 91.999 146.412 175.546zM399.283 36.064l.002.001-.002-.001 65.173 46.397-11.599 16.293-65.172-46.397zM384.232 74.45l48.879 34.797-12.919 18.147c-14.854-13.925-31.24-25.637-48.764-34.958zm-260.837 55.623c-3.837-3.973-10.165-4.084-14.141-.249-21.64 20.894-38.665 45.381-50.603 72.783-11.043 25.346-17.214 52.095-18.417 79.646H20.202C25.339 154.552 128.301 51.591 256.001 46.454l.001 20.019a223.488 223.488 0 0 0-67.451 13.531c-5.184 1.906-7.841 7.653-5.936 12.836 1.906 5.184 7.653 7.841 12.836 5.936a203.563 203.563 0 0 1 31.925-8.858c-8.469 11.495-16.109 27.072-22.741 46.564-14.264 41.926-22.119 97.247-22.119 155.771v30.001H60.002v-30.001c0-56.151 22.425-108.726 63.145-148.041 3.972-3.836 4.083-10.166.248-14.139zM492 342.254v20.001H20v-20.001zM332.271 475.928v-36.171c0-9.649 7.851-17.5 17.5-17.5s17.5 7.851 17.5 17.5v36.171zm55 0v-36.171c0-20.678-16.822-37.5-37.5-37.5s-37.5 16.822-37.5 37.5v36.171H20v-93.672h472v93.672z" fill="#000000" opacity="1" data-original="#000000" class=""></path><path d="M151.616 119.249c5.522 0 10-4.477 10-10s-4.478-10-10-10h-.008c-5.522 0-9.996 4.477-9.996 10s4.482 10 10.004 10z" fill="#000000" opacity="1" data-original="#000000" class=""></path></g></svg>